<?xml version="1.0" encoding="UTF-8"?>
<svg version="1.1" xmlns="http://www.w3.org/2000/svg" width="2512" height="2048">
<path d="M0 0 C0.65880157 0.00054382 1.31760315 0.00108765 1.99636841 0.00164795 C12.95579061 0.04313137 23.0240187 0.93285383 33.4375 4.375 C34.08138672 4.58398926 34.72527344 4.79297852 35.38867188 5.00830078 C48.43457823 9.39306538 60.12012645 16.17948804 70.44869614 25.24233341 C71.09374052 25.80566063 71.7387849 26.36898785 72.40337609 26.94938559 C79.80911165 33.48766822 86.78576689 40.44200454 93.75836182 47.43516541 C95.23972914 48.91350435 96.72152833 50.39141064 98.20371604 51.86892706 C102.23482258 55.8898339 106.2597664 59.91685853 110.28362513 63.94501674 C114.63995273 68.30382618 119.00203934 72.6568662 123.36334229 77.01069641 C131.88977362 85.52442049 140.41076372 94.04356631 148.92966679 102.56482118 C155.85598656 109.49297936 162.78411163 116.41932763 169.71349335 123.34442329 C170.71184852 124.34217605 171.71020309 125.33992942 172.70855705 126.3376834 C174.21326591 127.84148493 175.71797544 129.34528579 177.22268881 130.8490828 C191.19515223 144.8131281 205.16558313 158.77920418 219.1317482 172.74954891 C219.65724453 173.27520162 220.18274086 173.80085433 220.72416133 174.3424359 C223.38711202 177.00619229 226.05004267 179.66996871 228.71296528 182.33375316 C229.24175941 182.86271838 229.77055354 183.3916836 230.31537174 183.93667807 C231.38471744 185.00637043 232.45406221 186.07606373 233.52340604 187.14575796 C250.16860378 203.79631485 266.82043914 220.44020765 283.47753906 237.07885742 C302.223755 255.80433314 320.96494212 274.53482128 339.69878364 293.27267748 C341.69809757 295.27238672 343.69742838 297.27207909 345.69676971 299.27176094 C346.18899843 299.76408039 346.68122714 300.25639983 347.18837188 300.76363805 C354.59992467 308.17635393 362.01536224 315.58516839 369.43280792 322.99198723 C377.87120421 331.41830575 386.30415585 339.85003117 394.73046806 348.28843754 C399.02579035 352.58963848 403.32344772 356.88843306 407.62771606 361.18068314 C411.57437253 365.11644799 415.51393032 369.059181 419.44814894 373.00737769 C420.86587084 374.4277374 422.28608095 375.84561925 423.70913938 377.26063227 C434.69939428 388.19309644 445.46594473 399.43825375 452.5625 413.375 C455.42179782 418.76358928 458.37442985 423.89788278 461.8125 428.9375 C480.73767859 457.44628372 492.44385668 494.01570632 492.640625 528.30078125 C492.65107849 529.53297897 492.65107849 529.53297897 492.66174316 530.79006958 C492.67902502 533.42259919 492.68546149 536.05491605 492.6875 538.6875 C492.68850708 539.58550323 492.68951416 540.48350647 492.69055176 541.40872192 C492.6807448 554.31107492 492.25614225 566.73970716 489.4375 579.375 C489.15524489 580.7810486 488.87400188 582.18730074 488.59375 583.59375 C480.78365657 621.0380394 462.32222126 654.47610582 436.4375 682.375 C435.51747549 683.37825347 434.59768102 684.38171793 433.67808386 685.38536313 C423.48115229 696.46149069 412.85417203 707.10070734 402.20295013 717.73695853 C399.46364941 720.47354321 396.72729652 723.21307315 393.99054188 725.95220363 C389.18757894 730.75854183 384.38278085 735.56303919 379.57675119 740.36631078 C372.38205413 747.55689767 365.19026469 754.75038761 357.99901881 761.94442579 C345.74027414 774.20776151 333.47916664 786.46873233 321.21675873 798.728405 C308.79509922 811.14731064 296.37452951 823.56730472 283.9552803 835.98862076 C283.17007866 836.77395158 282.38487701 837.5592824 281.57588137 838.36841113 C278.37775368 841.5670721 275.1796337 844.76574079 271.9815235 847.96441927 C242.21300063 877.73822806 212.44201709 907.50957527 182.66945267 937.27934265 C181.78773061 938.16098191 180.90600855 939.04262117 179.99756765 939.95097678 C179.11443533 940.83402617 178.23130301 941.71707556 177.3214091 942.62688402 C150.41677466 969.52899533 123.51307625 996.43204228 96.61030197 1023.33601379 C94.80879577 1025.13759748 93.00728941 1026.93918099 91.20578288 1028.74076435 C83.96635836 1035.98049934 76.72693795 1043.22023842 69.48752351 1050.45998348 C49.25103085 1070.69739314 29.01436499 1090.93462961 8.7775631 1111.17173004 C7.85605134 1112.09325544 6.93453959 1113.01478084 5.98510324 1113.96423125 C-23.37620529 1143.32594903 -52.73828127 1172.68689919 -82.10088158 1202.04732513 C-82.5769609 1202.52336934 -83.05304022 1202.99941354 -83.54354619 1203.48988333 C-99.48945977 1219.43462059 -115.43541323 1235.37931797 -131.38137077 1251.32401127 C-179.61153312 1299.55035243 -227.84083059 1347.77755799 -313.97985972 1433.92261556 C-329.92914942 1449.87316847 -345.87844646 1465.82371403 -361.82777977 1481.77422333 C-362.30393636 1482.25041516 -362.78009294 1482.72660699 -363.27067851 1483.21722887 C-393.08758089 1513.03633638 -422.90509615 1542.85483088 -452.72332191 1572.67261505 C-454.1044538 1574.05372656 -454.1044538 1574.05372656 -455.51348734 1575.46273932 C-475.72379657 1595.67273609 -495.93426636 1615.88257229 -516.14488101 1636.09226364 C-523.37595033 1643.32300381 -530.60701161 1650.55375202 -537.8380706 1657.78450252 C-539.63699331 1659.58334785 -541.4359167 1661.3821925 -543.23484076 1663.18103649 C-570.13716055 1690.08216204 -597.03837386 1716.98439365 -623.93883419 1743.88737861 C-624.82105302 1744.76968024 -625.70327185 1745.65198186 -626.61222458 1746.5610199 C-627.49281821 1747.44169621 -628.37341184 1748.32237252 -629.28069012 1749.22973599 C-658.95661539 1778.90841719 -688.63442192 1808.58521602 -718.31436484 1838.25987941 C-721.49914605 1841.44410825 -724.68391943 1844.62834493 -727.86868668 1847.81258774 C-728.65029701 1848.59406786 -729.43190734 1849.37554798 -730.23720283 1850.18070932 C-742.62973856 1862.57127014 -755.02059694 1874.96350696 -767.41076513 1887.3564352 C-779.58400942 1899.53232016 -791.75903065 1911.70642587 -803.93596475 1923.87862073 C-811.0808513 1931.02083277 -818.22436153 1938.16441481 -825.36586853 1945.3100061 C-830.10454546 1950.05112085 -834.84502209 1954.79043098 -839.58698672 1959.52825744 C-842.27774298 1962.21676726 -844.96771132 1964.9060524 -847.655471 1967.59755825 C-850.54306037 1970.48913761 -853.43449783 1973.37683833 -856.32632768 1976.26417685 C-857.153721 1977.0939609 -857.98111431 1977.92374496 -858.83358015 1978.77867399 C-863.06420794 1982.99588893 -867.37028642 1987.05743921 -871.90565706 1990.94623316 C-874.00050531 1992.7527108 -875.99184051 1994.66063251 -878 1996.5625 C-889.55476436 2006.9494015 -902.79690505 2015.25752517 -916.5625 2022.375 C-917.27567383 2022.7472168 -917.98884766 2023.11943359 -918.72363281 2023.50292969 C-967.86039972 2048.83806269 -1024.87464229 2052.93679325 -1077.52075195 2036.77612305 C-1096.5879679 2030.60892635 -1115.23210611 2022.06704903 -1131.5625 2010.375 C-1132.56796875 2009.65957031 -1133.5734375 2008.94414063 -1134.609375 2008.20703125 C-1145.0160039 2000.59078082 -1154.70827706 1992.2027487 -1164.10120243 1983.38312 C-1164.79842716 1982.72859413 -1165.49565189 1982.07406825 -1166.21400464 1981.39970826 C-1173.16569774 1974.84695665 -1179.94538742 1968.13151775 -1186.69326115 1961.37007999 C-1188.03981394 1960.02457383 -1189.38658525 1958.67928633 -1190.73355147 1957.33419403 C-1194.40057173 1953.67103067 -1198.06452035 1950.00480904 -1201.72793112 1946.33803643 C-1205.72672948 1942.33668407 -1209.72844588 1938.33825169 -1213.72977775 1934.33943313 C-1220.73096089 1927.34185037 -1227.73029628 1920.34242371 -1234.72840118 1913.34176254 C-1242.23021023 1905.83722071 -1249.73308863 1898.33375025 -1257.23729515 1890.83160591 C-1257.71280472 1890.35622552 -1258.18831428 1889.88084512 -1258.67823323 1889.39105926 C-1260.61517348 1887.45465233 -1262.55212143 1885.5182531 -1264.48907913 1883.58186364 C-1282.49256446 1865.58365621 -1300.49359773 1847.58299822 -1318.4930439 1829.58075142 C-1319.02542219 1829.04829034 -1319.55780047 1828.51582925 -1320.10631144 1827.96723299 C-1320.63954613 1827.43391536 -1321.17278083 1826.90059774 -1321.72217415 1826.35111898 C-1337.98382676 1810.08694067 -1354.24641805 1793.82370167 -1370.50993156 1777.5613842 C-1371.60006787 1776.47132538 -1372.69020401 1775.38126639 -1373.78033999 1774.29120724 C-1378.16133443 1769.91052328 -1382.54233296 1765.52984342 -1386.92333747 1761.14916953 C-1399.16837935 1748.90504449 -1411.41324817 1736.66074639 -1423.65798092 1724.41631222 C-1424.21549391 1723.85881287 -1424.77300691 1723.30131352 -1425.34741424 1722.72692025 C-1443.10297289 1704.97177067 -1460.85776407 1687.21585383 -1478.61203098 1669.45941257 C-1479.18760357 1668.88376974 -1479.76317615 1668.30812691 -1480.35619032 1667.71504036 C-1489.70251801 1658.36756778 -1499.0488084 1649.02005791 -1508.39509563 1639.67254488 C-1545.48138853 1602.58139316 -1582.57022519 1565.492787 -1619.66137695 1528.40649414 C-1629.0137535 1519.05533879 -1638.36612498 1509.70417837 -1647.71846104 1500.35298252 C-1648.29432993 1499.77718408 -1648.87019881 1499.20138564 -1649.46351828 1498.60813876 C-1667.20903662 1480.86477642 -1684.95393414 1463.1207934 -1702.69815731 1445.37613583 C-1703.2551369 1444.81914265 -1703.8121165 1444.26214947 -1704.38597426 1443.68827771 C-1716.61199321 1431.46194629 -1728.83785158 1419.23545431 -1741.06356513 1407.0088175 C-1745.4377452 1402.6343083 -1749.81193329 1398.25980712 -1754.18612368 1393.88530824 C-1755.27427917 1392.79707537 -1756.36243398 1391.70884182 -1757.45058812 1390.62060761 C-1773.71376679 1374.35623541 -1789.97804997 1358.09296842 -1806.24308837 1341.83045605 C-1806.77621182 1341.2974154 -1807.30933527 1340.76437475 -1807.85861397 1340.21518135 C-1808.65682009 1339.41709925 -1808.65682009 1339.41709925 -1809.47115159 1338.60289428 C-1827.41361488 1320.66318839 -1845.35419245 1302.72159861 -1863.29263867 1284.77787591 C-1865.21852332 1282.8514389 -1867.1444158 1280.92500972 -1869.07031441 1278.99858665 C-1869.54295963 1278.52581123 -1870.01560485 1278.0530358 -1870.50257265 1277.56593384 C-1878.44323557 1269.6231782 -1886.3858714 1261.68239738 -1894.3290266 1253.74213415 C-1901.23509238 1246.83830588 -1908.13934674 1239.93266967 -1915.04211329 1233.02554269 C-1918.97828845 1229.08698258 -1922.91525463 1225.14922206 -1926.85441477 1221.21364719 C-1930.43730669 1217.63398314 -1934.01789331 1214.05202997 -1937.59664972 1210.46823158 C-1938.88410983 1209.17976373 -1940.17240859 1207.89213318 -1941.46164478 1206.60544246 C-1947.70717639 1200.37136852 -1953.87504162 1194.13157658 -1959.5625 1187.375 C-1960.48571623 1186.3179061 -1961.41016331 1185.26188568 -1962.3359375 1184.20703125 C-1968.61299745 1176.9214947 -1974.31744344 1169.45445875 -1979.5625 1161.375 C-1979.92553223 1160.81651367 -1980.28856445 1160.25802734 -1980.66259766 1159.68261719 C-2010.77164738 1112.85222049 -2020.41770548 1055.78149299 -2008.78662109 1001.52636719 C-2003.1234391 976.73853625 -1993.22245124 953.44801936 -1979.70703125 931.921875 C-1978.11919974 929.36333899 -1976.69410102 926.75969775 -1975.32421875 924.078125 C-1974.94547607 923.33691406 -1974.5667334 922.59570312 -1974.17651367 921.83203125 C-1973.47096453 920.43423062 -1972.77576127 919.03111872 -1972.0949707 917.62109375 C-1965.66425255 904.90078513 -1954.4965538 895.01647568 -1944.53451538 885.07286072 C-1943.01084607 883.54473264 -1941.48760602 882.01617646 -1939.96475565 880.48723227 C-1935.79995154 876.30831515 -1931.62897538 872.13560743 -1927.45688891 867.96396244 C-1922.95010833 863.45552778 -1918.44904691 858.94138909 -1913.94717407 854.42805481 C-1904.62466991 845.08393507 -1895.29568116 835.74631171 -1885.96475612 826.41060186 C-1885.45834068 825.90392523 -1884.95192523 825.39724861 -1884.43016386 824.87521815 C-1883.66893618 824.11360007 -1883.66893618 824.11360007 -1882.89233017 823.33659575 C-1877.25550842 817.69668526 -1871.62039691 812.05506686 -1865.98534012 806.41339302 C-1848.95172398 789.36013919 -1831.91649571 772.30849999 -1814.87447166 755.26364803 C-1814.33008579 754.7191681 -1813.78569991 754.17468816 -1813.2248175 753.61370883 C-1811.01887335 751.40738622 -1808.81292196 749.20107084 -1806.60696884 746.9947572 C-1804.94679912 745.33431576 -1803.28663189 743.67387185 -1801.62646484 742.01342773 C-1801.07788041 741.46475528 -1800.52929598 740.91608282 -1799.96408777 740.35078393 C-1782.72754307 723.11133381 -1765.50062442 705.86231371 -1748.28076172 688.60620117 C-1728.91343235 669.19810187 -1709.53756313 649.79858063 -1690.14998782 630.41070467 C-1688.08081176 628.3414318 -1686.01167065 626.27212397 -1683.94255447 624.20279121 C-1683.17840073 623.4385713 -1683.17840073 623.4385713 -1682.39880954 622.6589126 C-1674.2198425 614.47882819 -1666.04903096 606.29064475 -1657.8811125 598.09952992 C-1649.66562809 589.86114813 -1641.44059786 581.63240535 -1633.20657913 573.41254585 C-1628.75082211 568.96394793 -1624.29914479 564.51146493 -1619.85836029 560.04791641 C-1615.78665841 555.95554344 -1611.70341355 551.87505672 -1607.61098392 547.80341489 C-1606.13893896 546.33484911 -1604.67103439 544.86211776 -1603.20792393 543.38465046 C-1580.82498623 520.79644108 -1554.57731368 507.3011153 -1522.3125 507.0625 C-1484.48018625 506.97633615 -1458.20149892 525.74101803 -1432.43292618 551.38152599 C-1429.26648697 554.54009383 -1426.106422 557.70498368 -1422.94683838 560.8704071 C-1421.17952992 562.63727891 -1419.41200148 564.40393069 -1417.64427352 566.1703828 C-1413.81806227 569.99483123 -1409.99339248 573.82081081 -1406.1701088 577.64818573 C-1400.48512913 583.33923176 -1394.79725199 589.02737545 -1389.10880103 594.71495151 C-1379.53730067 604.28514168 -1369.96811891 613.85764697 -1360.40027618 623.43149376 C-1350.93281751 632.90487821 -1341.46431764 642.37722001 -1331.99443817 651.84818459 C-1331.10979989 652.73292597 -1331.10979989 652.73292597 -1330.20729013 653.63554093 C-1327.2119532 656.63121621 -1324.21659778 659.62687301 -1321.22123525 662.62252269 C-1300.02895178 683.81690416 -1278.83898556 705.01360099 -1257.65039062 726.21166992 C-1237.07148995 746.79976133 -1216.49153443 767.38679738 -1195.91015625 787.97241211 C-1195.27526675 788.60743314 -1194.64037724 789.24245417 -1193.98624866 789.89671826 C-1187.61017521 796.27411029 -1181.23408037 802.65148093 -1174.85796987 809.02883591 C-1161.87017551 822.01916619 -1148.88252384 835.00963912 -1135.8949585 848.00019836 C-1135.29786769 848.59742646 -1134.70077689 849.19465455 -1134.08559243 849.80998046 C-1094.24217035 889.66259649 -1054.40208447 929.51854765 -1014.5625 969.375 C-1009.70818442 965.32845619 -1005.13720688 961.09142479 -1000.68076169 956.61285752 C-1000.02066841 955.9535454 -999.36057512 955.29423327 -998.68047901 954.614942 C-996.47031727 952.40617394 -994.26375153 950.19384871 -992.05714989 947.98152447 C-990.45003778 946.37393825 -988.84270438 944.76657323 -987.23516983 943.15940943 C-982.80265793 938.72664245 -978.3732879 934.29074743 -973.94439964 929.85436039 C-969.6277095 925.53136441 -965.30863405 921.21075408 -960.98961486 916.89008524 C-952.04780672 907.94470265 -943.10834097 898.99698259 -934.17013168 890.04800415 C-925.11169168 880.9786796 -916.05213556 871.9104721 -906.99120331 862.84363747 C-906.41896432 862.27102525 -905.84672533 861.69841303 -905.25714577 861.10844893 C-902.33926944 858.18868394 -899.42137074 855.26894131 -896.50346077 852.34920995 C-890.52106349 846.36306882 -884.53880633 840.37678766 -878.55659223 834.39046347 C-877.95409946 833.78755743 -877.3516067 833.18465139 -876.73085658 832.56347547 C-867.35361568 823.17975548 -857.97699262 813.79541837 -848.60074306 804.41070783 C-847.96726833 803.77666188 -847.33379361 803.14261592 -846.68112268 802.48935645 C-844.10843551 799.91434615 -841.53575167 797.33933252 -838.96307019 794.76431654 C-807.51286542 763.28557882 -776.05783557 731.81166684 -744.60063872 700.33991653 C-737.23956638 692.97543737 -729.8785538 685.61089848 -722.51754415 678.24635667 C-721.16918044 676.89734645 -719.82081672 675.54833625 -718.47245299 674.19932606 C-715.76741076 671.49298667 -713.06236916 668.78664666 -710.35732784 666.08030637 C-707.64226764 663.36394281 -704.92720539 660.64758132 -702.21214142 657.93122153 C-670.89391413 626.59804105 -639.57650599 595.26404192 -608.25985114 563.92928982 C-606.13667648 561.80488906 -604.01349936 559.68049076 -601.890322 557.5560927 C-569.18982823 524.83676316 -536.49083728 492.11593307 -503.79541016 459.39154053 C-503.09218752 458.68769542 -502.38896488 457.98385032 -501.66443247 457.25867658 C-490.32581497 445.91001334 -478.98727608 434.56127155 -467.64875415 423.21251283 C-434.98813738 390.52240977 -402.32630904 357.83352025 -369.6577549 325.15134907 C-368.98594306 324.47925597 -368.31413122 323.80716287 -367.62196144 323.11470331 C-353.53637763 309.02325399 -339.45037081 294.93222759 -325.36381644 280.84174849 C-318.76727106 274.24336267 -312.17081941 267.64488315 -305.57442093 261.04635048 C-304.92496955 260.39669235 -304.27551817 259.74703422 -303.60638645 259.07768949 C-282.68625255 238.1508023 -261.77271226 217.21734039 -240.86270264 196.28033747 C-219.80223083 175.19272101 -198.73565165 154.11122738 -177.66047933 133.03830216 C-174.74765746 130.12578647 -171.83490817 127.21319819 -168.92220306 124.30056572 C-168.35123639 123.72961824 -167.78026971 123.15867076 -167.19200101 122.57042184 C-158.15481677 113.53316847 -149.12438786 104.48919597 -140.09676835 95.44238911 C-131.21767271 86.54469693 -122.33146376 77.65416199 -113.43766703 68.77116394 C-108.68117702 64.02005619 -103.92814043 59.26562681 -99.18376534 54.50241139 C-94.86596606 50.16758756 -90.53902335 45.84211319 -86.20466601 41.52384743 C-84.64963663 39.97137775 -83.09794096 38.41555964 -81.55005576 36.85596678 C-58.68731297 13.83104345 -33.01225795 -0.04615045 0 0 Z " fill="#40A4ED" transform="translate(2016.5625,-0.375)"/>
<path d="M0 0 C22.88058953 27.37589299 35.00146637 69.7886145 35.203125 104.92578125 C35.21357849 106.15797897 35.21357849 106.15797897 35.22424316 107.41506958 C35.24152502 110.04759919 35.24796149 112.67991605 35.25 115.3125 C35.25100708 116.21050323 35.25201416 117.10850647 35.25305176 118.03372192 C35.2432448 130.93607492 34.81864225 143.36470716 32 156 C31.71774489 157.4060486 31.43650188 158.81230074 31.15625 160.21875 C23.34615657 197.6630394 4.88472126 231.10110582 -21 259 C-21.92002451 260.00325347 -22.83981898 261.00671793 -23.75941614 262.01036313 C-33.95634771 273.08649069 -44.58332797 283.72570734 -55.23454987 294.36195853 C-57.97385059 297.09854321 -60.71020348 299.83807315 -63.44695812 302.57720363 C-68.24992106 307.38354183 -73.05471915 312.18803919 -77.86074881 316.99131078 C-85.05544587 324.18189767 -92.24723531 331.37538761 -99.43848119 338.56942579 C-111.69722586 350.83276151 -123.95833336 363.09373233 -136.22074127 375.353405 C-148.64240078 387.77231064 -161.06297049 400.19230472 -173.4822197 412.61362076 C-174.26742134 413.39895158 -175.05262299 414.1842824 -175.86161863 414.99341113 C-179.05974632 418.1920721 -182.2578663 421.39074079 -185.4559765 424.58941927 C-215.22449937 454.36322806 -244.99548291 484.13457527 -274.76804733 513.90434265 C-275.64976939 514.78598191 -276.53149145 515.66762117 -277.43993235 516.57597678 C-278.32306467 517.45902617 -279.20619699 518.34207556 -280.1160909 519.25188402 C-307.02072534 546.15399533 -333.92442375 573.05704228 -360.82719803 599.96101379 C-362.62870423 601.76259748 -364.43021059 603.56418099 -366.23171712 605.36576435 C-373.47114164 612.60549934 -380.71056205 619.84523842 -387.94997649 627.08498348 C-408.18646915 647.32239314 -428.42313501 667.55962961 -448.6599369 687.79673004 C-449.58144866 688.71825544 -450.50296041 689.63978084 -451.45239676 690.58923125 C-480.81370529 719.95094903 -510.17578127 749.31189919 -539.53838158 778.67232513 C-540.0144609 779.14836934 -540.49054022 779.62441354 -540.98104619 780.11488333 C-556.92695977 796.05962059 -572.87291323 812.00431797 -588.81887077 827.94901127 C-637.04903312 876.17535243 -685.27833059 924.40255799 -771.41735972 1010.54761556 C-787.36664942 1026.49816847 -803.31594646 1042.44871403 -819.26527977 1058.39922333 C-819.74143636 1058.87541516 -820.21759294 1059.35160699 -820.70817851 1059.84222887 C-850.52508089 1089.66133638 -880.34259615 1119.47983088 -910.16082191 1149.29761505 C-911.5419538 1150.67872656 -911.5419538 1150.67872656 -912.95098734 1152.08773932 C-933.16129657 1172.29773609 -953.37176636 1192.50757229 -973.58238101 1212.71726364 C-980.81345033 1219.94800381 -988.04451161 1227.17875202 -995.2755706 1234.40950252 C-997.07449331 1236.20834785 -998.8734167 1238.0071925 -1000.67234076 1239.80603649 C-1027.57466055 1266.70716204 -1054.47587386 1293.60939365 -1081.37633419 1320.51237861 C-1082.25855302 1321.39468024 -1083.14077185 1322.27698186 -1084.04972458 1323.1860199 C-1084.93031821 1324.06669621 -1085.81091184 1324.94737252 -1086.71819012 1325.85473599 C-1116.39411539 1355.53341719 -1146.07192192 1385.21021602 -1175.75186484 1414.88487941 C-1178.93664605 1418.06910825 -1182.12141943 1421.25334493 -1185.30618668 1424.43758774 C-1186.08779701 1425.21906786 -1186.86940734 1426.00054798 -1187.67470283 1426.80570932 C-1200.06723856 1439.19627014 -1212.45809694 1451.58850696 -1224.84826513 1463.9814352 C-1237.02150942 1476.15732016 -1249.19653065 1488.33142587 -1261.37346475 1500.50362073 C-1268.5183513 1507.64583277 -1275.66186153 1514.78941481 -1282.80336853 1521.9350061 C-1287.54204546 1526.67612085 -1292.28252209 1531.41543098 -1297.02448672 1536.15325744 C-1299.71524298 1538.84176726 -1302.40521132 1541.5310524 -1305.092971 1544.22255825 C-1307.98056037 1547.11413761 -1310.87199783 1550.00183833 -1313.76382768 1552.88917685 C-1314.591221 1553.7189609 -1315.41861431 1554.54874496 -1316.27108015 1555.40367399 C-1320.50170794 1559.62088893 -1324.80778642 1563.68243921 -1329.34315706 1567.57123316 C-1331.43800531 1569.3777108 -1333.42934051 1571.28563251 -1335.4375 1573.1875 C-1346.99226436 1583.5744015 -1360.23440505 1591.88252517 -1374 1599 C-1374.71317383 1599.3722168 -1375.42634766 1599.74443359 -1376.16113281 1600.12792969 C-1425.29789972 1625.46306269 -1482.31214229 1629.56179325 -1534.95825195 1613.40112305 C-1554.0254679 1607.23392635 -1572.66960611 1598.69204903 -1589 1587 C-1590.00546875 1586.28457031 -1591.0109375 1585.56914063 -1592.046875 1584.83203125 C-1602.4535039 1577.21578082 -1612.14577706 1568.8277487 -1621.53870243 1560.00812 C-1622.23592716 1559.35359413 -1622.93315189 1558.69906825 -1623.65150464 1558.02470826 C-1630.60319774 1551.47195665 -1637.38288742 1544.75651775 -1644.13076115 1537.99507999 C-1645.47731394 1536.64957383 -1646.82408525 1535.30428633 -1648.17105147 1533.95919403 C-1651.83807173 1530.29603067 -1655.50202035 1526.62980904 -1659.16543112 1522.96303643 C-1663.16422948 1518.96168407 -1667.16594588 1514.96325169 -1671.16727775 1510.96443313 C-1678.16846089 1503.96685037 -1685.16779628 1496.96742371 -1692.16590118 1489.96676254 C-1699.66771023 1482.46222071 -1707.17058863 1474.95875025 -1714.67479515 1467.45660591 C-1715.15030472 1466.98122552 -1715.62581428 1466.50584512 -1716.11573323 1466.01605926 C-1718.05267348 1464.07965233 -1719.98962143 1462.1432531 -1721.92657913 1460.20686364 C-1739.93006446 1442.20865621 -1757.93109773 1424.20799822 -1775.9305439 1406.20575142 C-1776.46292219 1405.67329034 -1776.99530047 1405.14082925 -1777.54381144 1404.59223299 C-1778.07704613 1404.05891536 -1778.61028083 1403.52559774 -1779.15967415 1402.97611898 C-1795.42132676 1386.71194067 -1811.68391805 1370.44870167 -1827.94743156 1354.1863842 C-1829.03756787 1353.09632538 -1830.12770401 1352.00626639 -1831.21783999 1350.91620724 C-1835.59883443 1346.53552328 -1839.97983296 1342.15484342 -1844.36083747 1337.77416953 C-1856.60587935 1325.53004449 -1868.85074817 1313.28574639 -1881.09548092 1301.04131222 C-1881.65299391 1300.48381287 -1882.21050691 1299.92631352 -1882.78491424 1299.35192025 C-1900.54047289 1281.59677067 -1918.29526407 1263.84085383 -1936.04953098 1246.08441257 C-1936.62510357 1245.50876974 -1937.20067615 1244.93312691 -1937.79369032 1244.34004036 C-1947.14001801 1234.99256778 -1956.4863084 1225.64505791 -1965.83259563 1216.29754488 C-2002.91888853 1179.20639316 -2040.00772519 1142.117787 -2077.09887695 1105.03149414 C-2086.4512535 1095.68033879 -2095.80362498 1086.32917837 -2105.15596104 1076.97798252 C-2105.73182993 1076.40218408 -2106.30769881 1075.82638564 -2106.90101828 1075.23313876 C-2124.64653662 1057.48977642 -2142.39143414 1039.7457934 -2160.13565731 1022.00113583 C-2160.6926369 1021.44414265 -2161.2496165 1020.88714947 -2161.82347426 1020.31327771 C-2174.04949321 1008.08694629 -2186.27535158 995.86045431 -2198.50106513 983.6338175 C-2202.8752452 979.2593083 -2207.24943329 974.88480712 -2211.62362368 970.51030824 C-2212.71177917 969.42207537 -2213.79993398 968.33384182 -2214.88808812 967.24560761 C-2231.15126679 950.98123541 -2247.41554997 934.71796842 -2263.68058837 918.45545605 C-2264.21371182 917.9224154 -2264.74683527 917.38937475 -2265.29611397 916.84018135 C-2265.82825138 916.30812662 -2266.3603888 915.77607188 -2266.90865159 915.22789428 C-2284.85111488 897.28818839 -2302.79169245 879.34659861 -2320.73013867 861.40287591 C-2322.65602332 859.4764389 -2324.5819158 857.55000972 -2326.50781441 855.62358665 C-2326.98045963 855.15081123 -2327.45310485 854.6780358 -2327.94007265 854.19093384 C-2335.88073557 846.2481782 -2343.8233714 838.30739738 -2351.7665266 830.36713415 C-2358.67259238 823.46330588 -2365.57684674 816.55766967 -2372.47961329 809.65054269 C-2376.41578845 805.71198258 -2380.35275463 801.77422206 -2384.29191477 797.83864719 C-2387.87480669 794.25898314 -2391.45539331 790.67702997 -2395.03414972 787.09323158 C-2396.32160983 785.80476373 -2397.60990859 784.51713318 -2398.89914478 783.23044246 C-2405.14467639 776.99636852 -2411.31254162 770.75657658 -2417 764 C-2417.92321623 762.9429061 -2418.84766331 761.88688568 -2419.7734375 760.83203125 C-2426.05049745 753.5464947 -2431.75494344 746.07945875 -2437 738 C-2437.54454834 737.16227051 -2437.54454834 737.16227051 -2438.10009766 736.30761719 C-2468.20914738 689.47722049 -2477.85520548 632.40649299 -2466.22412109 578.15136719 C-2460.5609391 553.36353625 -2450.65995124 530.07301936 -2437.14453125 508.546875 C-2435.55669974 505.98833899 -2434.13160102 503.38469775 -2432.76171875 500.703125 C-2432.38297607 499.96191406 -2432.0042334 499.22070312 -2431.61401367 498.45703125 C-2430.90846453 497.05923062 -2430.21326127 495.65611872 -2429.5324707 494.24609375 C-2423.10175255 481.52578513 -2411.9340538 471.64147568 -2401.97201538 461.69786072 C-2400.44834607 460.16973264 -2398.92510602 458.64117646 -2397.40225565 457.11223227 C-2393.23745154 452.93331515 -2389.06647538 448.76060743 -2384.89438891 444.58896244 C-2380.38760833 440.08052778 -2375.88654691 435.56638909 -2371.38467407 431.05305481 C-2362.06216991 421.70893507 -2352.73318116 412.37131171 -2343.40225612 403.03560186 C-2342.64263295 402.27558692 -2342.64263295 402.27558692 -2341.86766386 401.50021815 C-2341.36017874 400.99247276 -2340.85269363 400.48472737 -2340.32983017 399.96159575 C-2334.69300842 394.32168526 -2329.05789691 388.68006686 -2323.42284012 383.03839302 C-2306.38922398 365.98513919 -2289.35399571 348.93349999 -2272.31197166 331.88864803 C-2271.76758579 331.3441681 -2271.22319991 330.79968816 -2270.6623175 330.23870883 C-2268.45637335 328.03238622 -2266.25042196 325.82607084 -2264.04446884 323.6197572 C-2262.38429912 321.95931576 -2260.72413189 320.29887185 -2259.06396484 318.63842773 C-2258.51538041 318.08975528 -2257.96679598 317.54108282 -2257.40158777 316.97578393 C-2240.16504307 299.73633381 -2222.93812442 282.48731371 -2205.71826172 265.23120117 C-2186.35093235 245.82310187 -2166.97506313 226.42358063 -2147.58748782 207.03570467 C-2145.51831176 204.9664318 -2143.44917065 202.89712397 -2141.38005447 200.82779121 C-2140.87061864 200.31831127 -2140.36118282 199.80883133 -2139.83630954 199.2839126 C-2131.6573425 191.10382819 -2123.48653096 182.91564475 -2115.3186125 174.72452992 C-2107.10312809 166.48614813 -2098.87809786 158.25740535 -2090.64407913 150.03754585 C-2086.18832211 145.58894793 -2081.73664479 141.13646493 -2077.29586029 136.67291641 C-2073.22415841 132.58054344 -2069.14091355 128.50005672 -2065.04848392 124.42841489 C-2063.57643896 122.95984911 -2062.10853439 121.48711776 -2060.64542393 120.00965046 C-2038.26248623 97.42144108 -2012.01481368 83.9261153 -1979.75 83.6875 C-1941.91768625 83.60133615 -1915.63899892 102.36601803 -1889.87042618 128.00652599 C-1886.70398697 131.16509383 -1883.543922 134.32998368 -1880.38433838 137.4954071 C-1878.61702992 139.26227891 -1876.84950148 141.02893069 -1875.08177352 142.7953828 C-1871.25556227 146.61983123 -1867.43089248 150.44581081 -1863.6076088 154.27318573 C-1857.92262913 159.96423176 -1852.23475199 165.65237545 -1846.54630103 171.33995151 C-1836.97480067 180.91014168 -1827.40561891 190.48264697 -1817.83777618 200.05649376 C-1808.37031751 209.52987821 -1798.90181764 219.00222001 -1789.43193817 228.47318459 C-1788.84217932 229.06301218 -1788.25242047 229.65283977 -1787.64479013 230.26054093 C-1784.6494532 233.25621621 -1781.65409778 236.25187301 -1778.65873525 239.24752269 C-1757.46645178 260.44190416 -1736.27648556 281.63860099 -1715.08789062 302.83666992 C-1694.50898995 323.42476133 -1673.92903443 344.01179738 -1653.34765625 364.59741211 C-1652.71276675 365.23243314 -1652.07787724 365.86745417 -1651.42374866 366.52171826 C-1645.04767521 372.89911029 -1638.67158037 379.27648093 -1632.29546987 385.65383591 C-1619.30767551 398.64416619 -1606.32002384 411.63463912 -1593.3324585 424.62519836 C-1592.43682229 425.5210405 -1592.43682229 425.5210405 -1591.52309243 426.43498046 C-1551.67967035 466.28759649 -1511.83958447 506.14354765 -1472 546 C-1473.56593966 549.29356498 -1475.24195828 551.49009988 -1477.83415508 554.07745743 C-1478.63848467 554.88515241 -1479.44281425 555.69284739 -1480.27151746 556.52501798 C-1481.15972599 557.40671871 -1482.04793453 558.28841944 -1482.96305847 559.19683838 C-1483.91305344 560.14698939 -1484.86260725 561.09758165 -1485.81175691 562.04857707 C-1488.42301248 564.66236727 -1491.04046544 567.26987382 -1493.65894854 569.87642074 C-1496.48137874 572.68816885 -1499.29802658 575.50569865 -1502.11535645 578.32255554 C-1506.99962916 583.20446444 -1511.88749832 588.08274841 -1516.77776146 592.95865631 C-1523.85640955 600.01662458 -1530.9290527 607.0805856 -1538.00014714 614.14612064 C-1549.48312973 625.61984274 -1560.97020496 637.08945797 -1572.46020508 648.55615234 C-1573.14806991 649.24262387 -1573.83593475 649.92909539 -1574.54464398 650.63636908 C-1575.23334756 651.32367713 -1575.92205113 652.01098518 -1576.63162452 652.71912074 C-1586.38475672 662.45250625 -1596.13693494 672.18684621 -1605.88793945 681.92236328 C-1606.57345216 682.60678514 -1607.25896487 683.291207 -1607.96525069 683.99636891 C-1619.4039098 695.41699123 -1630.84052988 706.83965402 -1642.27610856 718.26336074 C-1649.32790348 725.30757281 -1656.38176765 732.34970131 -1663.43833856 739.38912907 C-1668.27705478 744.21625625 -1673.11405995 749.04509334 -1677.94973852 753.87526354 C-1680.73810813 756.66030936 -1683.52731258 759.44450584 -1686.31875801 762.22646904 C-1688.87787997 764.77691387 -1691.43464533 767.32969736 -1693.98962048 769.88429615 C-1695.34463805 771.23790159 -1696.70214757 772.58901107 -1698.05976552 773.9400084 C-1702.29728191 778.18145272 -1706.35618553 782.49603233 -1710.26578981 787.04010963 C-1713.47082358 790.66222813 -1716.9194167 794.0421906 -1720.3494873 797.44955444 C-1721.16315624 798.2619611 -1721.97682517 799.07436776 -1722.81515074 799.91139281 C-1725.52478761 802.61567959 -1728.23798932 805.3163608 -1730.95117188 808.01708984 C-1732.90194223 809.96208053 -1734.85191957 811.90786549 -1736.80189514 813.85365295 C-1740.99319946 818.03527843 -1745.18617417 822.21522271 -1749.38014221 826.39417648 C-1756.01497709 833.00555337 -1762.64455316 839.62218989 -1769.27331543 846.23965454 C-1771.54533057 848.50766898 -1773.81737971 850.77564935 -1776.08943939 853.04361916 C-1776.65712918 853.61028972 -1777.22481897 854.17696028 -1777.80971149 854.76080268 C-1784.26077247 861.20013867 -1790.71291129 867.63839419 -1797.16552734 874.07617188 C-1797.754865 874.6641571 -1798.34420266 875.25214232 -1798.95139903 875.85794528 C-1808.50410451 885.38846471 -1818.06064584 894.9151307 -1827.61815518 904.4408323 C-1837.447109 914.23735598 -1847.27026293 924.03967034 -1857.0885148 933.84691966 C-1863.13585032 939.88704855 -1869.18786082 945.92241484 -1875.24605191 951.951656 C-1879.39908702 956.08563976 -1883.5465954 960.22511548 -1887.68987119 964.36888026 C-1890.07681504 966.75576132 -1892.466876 969.13927852 -1894.86206245 971.51790428 C-1897.46523983 974.10383492 -1900.05890813 976.69895675 -1902.6505127 979.29647827 C-1903.39964668 980.03619161 -1904.14878066 980.77590495 -1904.92061567 981.53803384 C-1918.79404806 995.51720128 -1927.50047233 1012.97926941 -1932 1032 C-1932.24492188 1032.96550781 -1932.48984375 1033.93101563 -1932.7421875 1034.92578125 C-1938.34965489 1061.46523307 -1932.17368288 1090.18293428 -1918 1113 C-1916.51914659 1115.10057796 -1914.99933223 1117.14133105 -1913.39453125 1119.1484375 C-1912 1121 -1912 1121 -1910.79434305 1123.21831667 C-1908.53783954 1126.71646503 -1905.84136516 1129.43538833 -1902.89597988 1132.35849571 C-1902.27250442 1132.98517765 -1901.64902897 1133.61185958 -1901.00666031 1134.25753188 C-1898.90844954 1136.36406859 -1896.8031668 1138.46339186 -1894.69786072 1140.56283569 C-1893.17992433 1142.08379159 -1891.66242279 1143.60518159 -1890.14532 1145.12696898 C-1885.96873783 1149.31386606 -1881.78590673 1153.49447151 -1877.6020304 1157.67407799 C-1873.09316487 1162.18048256 -1868.59003513 1166.69261245 -1864.08615112 1171.20399475 C-1855.25826767 1180.04464575 -1846.42489643 1188.87979332 -1837.58945524 1197.71289037 C-1830.40788013 1204.89263327 -1823.22810219 1212.07416886 -1816.04959297 1219.25697708 C-1815.01846771 1220.28870474 -1813.98734186 1221.3204318 -1812.9562154 1222.35215826 C-1811.40240722 1223.90687369 -1809.84859975 1225.46158982 -1808.29479616 1227.01630984 C-1793.84493107 1241.47460646 -1779.39301728 1255.9308527 -1764.93685055 1270.38284874 C-1764.39172534 1270.92781757 -1763.84660014 1271.47278639 -1763.28495599 1272.03426943 C-1760.5220174 1274.79640223 -1757.75905882 1277.55851504 -1754.99609225 1280.32061987 C-1754.17298864 1281.14346685 -1754.17298864 1281.14346685 -1753.33325666 1281.98293701 C-1752.22357792 1283.0922691 -1751.11389824 1284.20160025 -1750.00421762 1285.31093046 C-1732.74442628 1302.5653667 -1715.49128604 1319.82642847 -1698.2434082 1337.09277344 C-1678.86540628 1356.49149888 -1659.48240967 1375.88521381 -1640.0920344 1395.27157176 C-1638.02371395 1397.33949686 -1635.95541041 1399.40743886 -1633.88711739 1401.47539139 C-1633.37784859 1401.98456945 -1632.86857979 1402.49374752 -1632.34387861 1403.01835522 C-1624.66028536 1410.70078312 -1616.98060435 1418.38710726 -1609.30290031 1426.07542038 C-1600.56769455 1434.82268417 -1591.82711487 1443.56453211 -1583.07982122 1452.29970931 C-1578.61715691 1456.75647972 -1574.15693396 1461.21562269 -1569.70320702 1465.68132591 C-1565.62412855 1469.77124546 -1561.5381603 1473.85414884 -1557.44664533 1477.93162592 C-1555.96952365 1479.40609576 -1554.49491628 1480.88308976 -1553.02312588 1482.36288123 C-1543.43617168 1491.99831607 -1533.97317618 1500.24078847 -1521.875 1506.625 C-1521.15562256 1507.00470947 -1520.43624512 1507.38441895 -1519.69506836 1507.77563477 C-1512.39894227 1511.49970741 -1504.94360407 1514.00809928 -1497 1516 C-1496.2786084 1516.18401367 -1495.5572168 1516.36802734 -1494.81396484 1516.55761719 C-1487.40062507 1518.26382585 -1480.08343791 1518.38553189 -1472.5 1518.375 C-1471.83870087 1518.37445618 -1471.17740173 1518.37391235 -1470.49606323 1518.37335205 C-1459.56315071 1518.33209391 -1449.40516711 1517.4474003 -1439 1514 C-1438.01821777 1513.67854004 -1438.01821777 1513.67854004 -1437.01660156 1513.35058594 C-1418.68748413 1507.13226313 -1404.44436777 1495.77038805 -1390.96876556 1482.21601188 C-1389.99477908 1481.24363472 -1389.02035412 1480.27169662 -1388.04553667 1479.30015251 C-1385.37761245 1476.638671 -1382.71591394 1473.97104002 -1380.05522468 1471.30232838 C-1377.145093 1468.38566319 -1374.22911205 1465.47485525 -1371.31389102 1462.5632785 C-1366.18893778 1457.44312943 -1361.06771232 1452.31927534 -1355.94889984 1447.19298743 C-1348.2858554 1439.51879345 -1340.61701823 1431.85040738 -1332.94703974 1424.18314441 C-1319.87504755 1411.11544745 -1306.80778939 1398.04302598 -1293.74308777 1384.96804047 C-1280.5024757 1371.71704729 -1267.25967771 1358.46824439 -1254.0141964 1345.22211838 C-1253.177774 1344.38565289 -1252.34135161 1343.5491874 -1251.47958309 1342.68737448 C-1247.2146733 1338.42226618 -1242.9497268 1334.15719461 -1238.68476648 1329.89213684 C-1208.28280527 1299.48934719 -1177.88538969 1269.08201613 -1147.49052951 1238.67212747 C-1116.43959019 1207.60584231 -1085.38640703 1176.54180287 -1054.33008385 1145.48089981 C-1053.37081336 1144.52148643 -1052.41154293 1143.562073 -1051.45227254 1142.60265952 C-1041.81026082 1132.95921422 -1032.16819717 1123.31582085 -1022.52610244 1113.67245853 C-1002.42634254 1093.57005527 -982.32688816 1073.46734653 -962.22759069 1053.3644809 C-961.23606087 1052.37277507 -960.24453086 1051.38106943 -959.25300067 1050.38936397 C-911.49921047 1002.62713039 -863.74877915 954.86153925 -815.99890996 907.09538572 C-813.41424415 904.50983887 -810.82957736 901.924293 -808.24491057 899.33874714 C-807.21050326 898.30398798 -806.17609594 897.26922883 -805.14168863 896.23446967 C-804.62953581 895.72214264 -804.11738299 895.20981562 -803.58971038 894.68196353 C-801.51955406 892.61110298 -799.4493979 890.54024226 -797.37924175 888.46938154 C-787.52918624 878.61597363 -777.6791294 868.76256703 -767.82906796 858.90916505 C-765.7522969 856.83168967 -763.67552619 854.75421394 -761.59875575 852.67673794 C-713.82097355 804.88272761 -666.04198029 757.08992806 -618.26243327 709.29768202 C-615.67787869 706.71244045 -613.09332523 704.12719775 -610.50877211 701.54195472 C-563.78548022 654.80619302 -517.06163113 608.07098848 -470.33655748 561.33700813 C-468.84960445 559.84977145 -467.36265181 558.36253438 -465.8756993 556.87529718 C-447.24235254 538.2383836 -428.60898218 519.60149362 -409.97546812 500.96474732 C-398.40642587 489.39369693 -386.83741864 477.82261151 -375.26846886 466.25146866 C-374.55701265 465.53987792 -374.55701265 465.53987792 -373.83118359 464.8139116 C-341.83179274 432.80845771 -309.83465226 400.80075506 -277.83873663 368.79182701 C-257.60469254 348.5495547 -237.37041998 328.30751102 -217.13468301 308.06693101 C-216.25679308 307.18883093 -215.37890315 306.31073086 -214.47441049 305.40602169 C-205.76300916 296.69255944 -197.05151964 287.97918537 -188.3399139 279.26592748 C-184.09045828 275.01566261 -179.84102286 270.76537755 -175.59160042 266.5150795 C-174.75856806 265.68187637 -173.92553571 264.84867325 -173.06725995 263.99022154 C-159.85512394 250.77527822 -146.64469102 237.55863372 -133.43496793 224.34127848 C-120.45883183 211.35770972 -107.48094045 198.37589774 -94.50115787 185.39597439 C-86.88340639 177.77802918 -79.26705033 170.15869509 -71.65271309 162.53733724 C-66.6021505 157.48238771 -61.54979153 152.42923852 -56.4959395 147.37757773 C-53.62696397 144.50974267 -50.75878569 141.64112259 -47.89281532 138.77028406 C-45.29239664 136.16547664 -42.6896831 133.56298538 -40.08512294 130.96231922 C-38.71210755 129.5901743 -37.34154487 128.21557643 -35.97108995 126.84087416 C-31.92939718 122.80969954 -27.87091268 118.89448052 -23.45922011 115.26840668 C-8.84147887 102.56213946 -0.30599072 82.40858043 4 64 C4.24363281 63.03707031 4.48726562 62.07414062 4.73828125 61.08203125 C8.22242854 44.65676547 6.4345815 27.39184938 2.54003906 11.24707031 C1.64183491 7.50969642 0.82639001 3.75379041 0 0 Z " fill="#195ABD" transform="translate(2474,423)"/>
<path d="M0 0 C22.88058953 27.37589299 35.00146637 69.7886145 35.203125 104.92578125 C35.21357849 106.15797897 35.21357849 106.15797897 35.22424316 107.41506958 C35.24152502 110.04759919 35.24796149 112.67991605 35.25 115.3125 C35.25100708 116.21050323 35.25201416 117.10850647 35.25305176 118.03372192 C35.2432448 130.93607492 34.81864225 143.36470716 32 156 C31.71774489 157.4060486 31.43650188 158.81230074 31.15625 160.21875 C23.34615657 197.6630394 4.88472126 231.10110582 -21 259 C-21.92002451 260.00325347 -22.83981898 261.00671793 -23.75941614 262.01036313 C-33.95634771 273.08649069 -44.58332797 283.72570734 -55.23454987 294.36195853 C-57.97385059 297.09854321 -60.71020348 299.83807315 -63.44695812 302.57720363 C-68.24992106 307.38354183 -73.05471915 312.18803919 -77.86074881 316.99131078 C-85.05544587 324.18189767 -92.24723531 331.37538761 -99.43848119 338.56942579 C-111.69722586 350.83276151 -123.95833336 363.09373233 -136.22074127 375.353405 C-148.64240078 387.77231064 -161.06297049 400.19230472 -173.4822197 412.61362076 C-174.26742134 413.39895158 -175.05262299 414.1842824 -175.86161863 414.99341113 C-179.05974632 418.1920721 -182.2578663 421.39074079 -185.4559765 424.58941927 C-215.22449937 454.36322806 -244.99548291 484.13457527 -274.76804733 513.90434265 C-275.64976939 514.78598191 -276.53149145 515.66762117 -277.43993235 516.57597678 C-278.32306467 517.45902617 -279.20619699 518.34207556 -280.1160909 519.25188402 C-307.02072534 546.15399533 -333.92442375 573.05704228 -360.82719803 599.96101379 C-362.62870423 601.76259748 -364.43021059 603.56418099 -366.23171712 605.36576435 C-373.47114164 612.60549934 -380.71056205 619.84523842 -387.94997649 627.08498348 C-408.18646915 647.32239314 -428.42313501 667.55962961 -448.6599369 687.79673004 C-449.58144866 688.71825544 -450.50296041 689.63978084 -451.45239676 690.58923125 C-480.81370529 719.95094903 -510.17578127 749.31189919 -539.53838158 778.67232513 C-540.0144609 779.14836934 -540.49054022 779.62441354 -540.98104619 780.11488333 C-556.92695977 796.05962059 -572.87291323 812.00431797 -588.81887077 827.94901127 C-637.04903312 876.17535243 -685.27833059 924.40255799 -771.41735972 1010.54761556 C-787.36664942 1026.49816847 -803.31594646 1042.44871403 -819.26527977 1058.39922333 C-819.74143636 1058.87541516 -820.21759294 1059.35160699 -820.70817851 1059.84222887 C-850.52508089 1089.66133638 -880.34259615 1119.47983088 -910.16082191 1149.29761505 C-911.5419538 1150.67872656 -911.5419538 1150.67872656 -912.95098734 1152.08773932 C-933.16129657 1172.29773609 -953.37176636 1192.50757229 -973.58238101 1212.71726364 C-980.81345033 1219.94800381 -988.04451161 1227.17875202 -995.2755706 1234.40950252 C-997.07449331 1236.20834785 -998.8734167 1238.0071925 -1000.67234076 1239.80603649 C-1027.57466055 1266.70716204 -1054.47587386 1293.60939365 -1081.37633419 1320.51237861 C-1082.25855302 1321.39468024 -1083.14077185 1322.27698186 -1084.04972458 1323.1860199 C-1084.93031821 1324.06669621 -1085.81091184 1324.94737252 -1086.71819012 1325.85473599 C-1116.39411539 1355.53341719 -1146.07192192 1385.21021602 -1175.75186484 1414.88487941 C-1178.93664605 1418.06910825 -1182.12141943 1421.25334493 -1185.30618668 1424.43758774 C-1186.08779701 1425.21906786 -1186.86940734 1426.00054798 -1187.67470283 1426.80570932 C-1200.06723856 1439.19627014 -1212.45809694 1451.58850696 -1224.84826513 1463.9814352 C-1237.02150942 1476.15732016 -1249.19653065 1488.33142587 -1261.37346475 1500.50362073 C-1268.5183513 1507.64583277 -1275.66186153 1514.78941481 -1282.80336853 1521.9350061 C-1287.54204546 1526.67612085 -1292.28252209 1531.41543098 -1297.02448672 1536.15325744 C-1299.71524298 1538.84176726 -1302.40521132 1541.5310524 -1305.092971 1544.22255825 C-1307.98056037 1547.11413761 -1310.87199783 1550.00183833 -1313.76382768 1552.88917685 C-1314.591221 1553.7189609 -1315.41861431 1554.54874496 -1316.27108015 1555.40367399 C-1320.50170794 1559.62088893 -1324.80778642 1563.68243921 -1329.34315706 1567.57123316 C-1331.43800531 1569.3777108 -1333.42934051 1571.28563251 -1335.4375 1573.1875 C-1346.99226436 1583.5744015 -1360.23440505 1591.88252517 -1374 1599 C-1374.71317383 1599.3722168 -1375.42634766 1599.74443359 -1376.16113281 1600.12792969 C-1425.29789972 1625.46306269 -1482.31214229 1629.56179325 -1534.95825195 1613.40112305 C-1554.0254679 1607.23392635 -1572.66960611 1598.69204903 -1589 1587 C-1590.00546875 1586.28457031 -1591.0109375 1585.56914063 -1592.046875 1584.83203125 C-1602.4535039 1577.21578082 -1612.14577706 1568.8277487 -1621.53870243 1560.00812 C-1622.23592716 1559.35359413 -1622.93315189 1558.69906825 -1623.65150464 1558.02470826 C-1630.60319774 1551.47195665 -1637.38288742 1544.75651775 -1644.13076115 1537.99507999 C-1645.47731394 1536.64957383 -1646.82408525 1535.30428633 -1648.17105147 1533.95919403 C-1651.83807173 1530.29603067 -1655.50202035 1526.62980904 -1659.16543112 1522.96303643 C-1663.16422948 1518.96168407 -1667.16594588 1514.96325169 -1671.16727775 1510.96443313 C-1678.16846089 1503.96685037 -1685.16779628 1496.96742371 -1692.16590118 1489.96676254 C-1699.66771023 1482.46222071 -1707.17058863 1474.95875025 -1714.67479515 1467.45660591 C-1715.15030472 1466.98122552 -1715.62581428 1466.50584512 -1716.11573323 1466.01605926 C-1718.05267348 1464.07965233 -1719.98962143 1462.1432531 -1721.92657913 1460.20686364 C-1739.93006446 1442.20865621 -1757.93109773 1424.20799822 -1775.9305439 1406.20575142 C-1776.46292219 1405.67329034 -1776.99530047 1405.14082925 -1777.54381144 1404.59223299 C-1778.07704613 1404.05891536 -1778.61028083 1403.52559774 -1779.15967415 1402.97611898 C-1795.42132676 1386.71194067 -1811.68391805 1370.44870167 -1827.94743156 1354.1863842 C-1829.03756787 1353.09632538 -1830.12770401 1352.00626639 -1831.21783999 1350.91620724 C-1835.59883443 1346.53552328 -1839.97983296 1342.15484342 -1844.36083747 1337.77416953 C-1856.60587935 1325.53004449 -1868.85074817 1313.28574639 -1881.09548092 1301.04131222 C-1881.65299391 1300.48381287 -1882.21050691 1299.92631352 -1882.78491424 1299.35192025 C-1900.54047289 1281.59677067 -1918.29526407 1263.84085383 -1936.04953098 1246.08441257 C-1936.62510357 1245.50876974 -1937.20067615 1244.93312691 -1937.79369032 1244.34004036 C-1947.14001801 1234.99256778 -1956.4863084 1225.64505791 -1965.83259563 1216.29754488 C-2002.91888853 1179.20639316 -2040.00772519 1142.117787 -2077.09887695 1105.03149414 C-2086.4512535 1095.68033879 -2095.80362498 1086.32917837 -2105.15596104 1076.97798252 C-2105.73182993 1076.40218408 -2106.30769881 1075.82638564 -2106.90101828 1075.23313876 C-2124.64653662 1057.48977642 -2142.39143414 1039.7457934 -2160.13565731 1022.00113583 C-2160.6926369 1021.44414265 -2161.2496165 1020.88714947 -2161.82347426 1020.31327771 C-2174.04949321 1008.08694629 -2186.27535158 995.86045431 -2198.50106513 983.6338175 C-2202.8752452 979.2593083 -2207.24943329 974.88480712 -2211.62362368 970.51030824 C-2212.71177917 969.42207537 -2213.79993398 968.33384182 -2214.88808812 967.24560761 C-2231.15126679 950.98123541 -2247.41554997 934.71796842 -2263.68058837 918.45545605 C-2264.21371182 917.9224154 -2264.74683527 917.38937475 -2265.29611397 916.84018135 C-2265.82825138 916.30812662 -2266.3603888 915.77607188 -2266.90865159 915.22789428 C-2284.85111488 897.28818839 -2302.79169245 879.34659861 -2320.73013867 861.40287591 C-2322.65602332 859.4764389 -2324.5819158 857.55000972 -2326.50781441 855.62358665 C-2326.98045963 855.15081123 -2327.45310485 854.6780358 -2327.94007265 854.19093384 C-2335.88073557 846.2481782 -2343.8233714 838.30739738 -2351.7665266 830.36713415 C-2358.67259238 823.46330588 -2365.57684674 816.55766967 -2372.47961329 809.65054269 C-2376.41578845 805.71198258 -2380.35275463 801.77422206 -2384.29191477 797.83864719 C-2387.87480669 794.25898314 -2391.45539331 790.67702997 -2395.03414972 787.09323158 C-2396.32160983 785.80476373 -2397.60990859 784.51713318 -2398.89914478 783.23044246 C-2405.14467639 776.99636852 -2411.31254162 770.75657658 -2417 764 C-2417.92321623 762.9429061 -2418.84766331 761.88688568 -2419.7734375 760.83203125 C-2426.05049745 753.5464947 -2431.75494344 746.07945875 -2437 738 C-2437.54454834 737.16227051 -2437.54454834 737.16227051 -2438.10009766 736.30761719 C-2468.20914738 689.47722049 -2477.85520548 632.40649299 -2466.22412109 578.15136719 C-2460.68813603 553.92027911 -2451.12353062 531.107736 -2438 510 C-2436.70494158 513.88517525 -2437.76472558 516.52947888 -2438.875 520.3125 C-2444.34892791 539.39574522 -2444.0373862 561.04945334 -2438 580 C-2437.45666016 581.70929688 -2437.45666016 581.70929688 -2436.90234375 583.453125 C-2429.52101765 604.17088097 -2416.55404024 618.75113949 -2401.23968601 634.01478958 C-2399.73784437 635.51902393 -2398.23644019 637.02369514 -2396.73543152 638.52876067 C-2392.61304919 642.65974746 -2388.48448518 646.78450699 -2384.35487243 650.90826404 C-2379.86188587 655.3970761 -2375.37469494 659.89167555 -2370.88675588 664.38553309 C-2363.02142454 672.25962686 -2355.15240871 680.13002283 -2347.28087234 687.99791336 C-2338.83735543 696.43755077 -2330.39601418 704.87935542 -2321.95730019 713.32379532 C-2321.42373859 713.85771575 -2320.89017698 714.39163617 -2320.34044685 714.94173601 C-2318.1672424 717.11641541 -2315.99405268 719.29110952 -2313.82088183 721.46582249 C-2291.77430857 743.52802176 -2269.72126969 765.58374962 -2247.66564677 787.63690149 C-2244.61938466 790.68282515 -2241.57313072 793.72875699 -2238.52688527 796.7746973 C-2237.92181762 797.37970391 -2237.31674998 797.98471051 -2236.69334694 798.60805065 C-2223.28002272 812.0201026 -2209.86863625 825.4340915 -2196.45763873 838.84846992 C-2193.39482497 841.91205441 -2190.3319982 844.97562591 -2187.26917384 848.03919981 C-2186.03993299 849.26874236 -2184.81069222 850.49828501 -2183.58145156 851.72782774 C-2182.66748045 852.64202337 -2182.66748045 852.64202337 -2181.73504529 853.57468759 C-2180.50256801 854.8074684 -2179.27009131 856.04024978 -2178.03761518 857.27303174 C-2143.07133335 892.24798548 -2108.10303878 927.22092577 -2073.13028812 962.18941116 C-2072.48281924 962.83680199 -2071.83535035 963.48419282 -2071.1682612 964.15120155 C-2063.94836862 971.37022134 -2056.7284478 978.58921289 -2049.50851733 985.80819479 C-2048.85666902 986.45995759 -2048.20482071 987.11172039 -2047.53321943 987.78323357 C-2043.5790326 991.73690161 -2043.5790326 991.73690161 -2039.62484345 995.69056733 C-1997.91952566 1037.39034788 -1956.22075613 1079.09666564 -1914.52758789 1120.80859375 C-1904.01966537 1131.32123846 -1893.51172199 1141.83386233 -1883.00365543 1152.34636307 C-1882.35663767 1152.99365415 -1881.7096199 1153.64094524 -1881.04299554 1154.30785121 C-1861.10428603 1174.25493085 -1841.16373227 1194.20016533 -1821.22125149 1214.14347458 C-1820.59523303 1214.7695194 -1819.96921458 1215.39556422 -1819.32422587 1216.04058009 C-1805.58235005 1229.78299668 -1791.84001769 1243.52495665 -1778.09726745 1257.2664988 C-1773.1800952 1262.18324543 -1768.26295319 1267.10002231 -1763.3458244 1272.01681241 C-1762.12257042 1273.23998109 -1760.89931462 1274.46314795 -1759.676057 1275.68631299 C-1740.18091576 1295.18000519 -1720.69006686 1314.67798221 -1701.20131348 1334.17806047 C-1681.03155566 1354.35946302 -1660.85626954 1374.53532386 -1640.67465789 1394.70487264 C-1638.50778309 1396.8704956 -1636.34093246 1399.03614274 -1634.17410088 1401.20180893 C-1633.64232019 1401.73329932 -1633.1105395 1402.26478972 -1632.56264425 1402.81238588 C-1624.14083085 1411.22987305 -1615.72405666 1419.65238034 -1607.30936438 1428.07698562 C-1599.03619665 1436.35968793 -1590.75756896 1444.63689473 -1582.47347448 1452.9086693 C-1578.04190163 1457.33395863 -1573.61275315 1461.76160309 -1569.19014943 1466.19585767 C-1565.16729204 1470.22921553 -1561.13760374 1474.25561431 -1557.10234186 1478.27656072 C-1555.65237774 1479.72379496 -1554.20492354 1481.17354931 -1552.76029759 1482.62611213 C-1543.26596282 1492.16904264 -1533.8562639 1500.30248312 -1521.875 1506.625 C-1521.15562256 1507.00470947 -1520.43624512 1507.38441895 -1519.69506836 1507.77563477 C-1512.39894227 1511.49970741 -1504.94360407 1514.00809928 -1497 1516 C-1496.2786084 1516.18401367 -1495.5572168 1516.36802734 -1494.81396484 1516.55761719 C-1487.40062507 1518.26382585 -1480.08343791 1518.38553189 -1472.5 1518.375 C-1471.83870087 1518.37445618 -1471.17740173 1518.37391235 -1470.49606323 1518.37335205 C-1459.56315071 1518.33209391 -1449.40516711 1517.4474003 -1439 1514 C-1438.01821777 1513.67854004 -1438.01821777 1513.67854004 -1437.01660156 1513.35058594 C-1418.68748413 1507.13226313 -1404.44436777 1495.77038805 -1390.96876556 1482.21601188 C-1389.99477908 1481.24363472 -1389.02035412 1480.27169662 -1388.04553667 1479.30015251 C-1385.37761245 1476.638671 -1382.71591394 1473.97104002 -1380.05522468 1471.30232838 C-1377.145093 1468.38566319 -1374.22911205 1465.47485525 -1371.31389102 1462.5632785 C-1366.18893778 1457.44312943 -1361.06771232 1452.31927534 -1355.94889984 1447.19298743 C-1348.2858554 1439.51879345 -1340.61701823 1431.85040738 -1332.94703974 1424.18314441 C-1319.87504755 1411.11544745 -1306.80778939 1398.04302598 -1293.74308777 1384.96804047 C-1280.5024757 1371.71704729 -1267.25967771 1358.46824439 -1254.0141964 1345.22211838 C-1253.177774 1344.38565289 -1252.34135161 1343.5491874 -1251.47958309 1342.68737448 C-1247.2146733 1338.42226618 -1242.9497268 1334.15719461 -1238.68476648 1329.89213684 C-1208.28280527 1299.48934719 -1177.88538969 1269.08201613 -1147.49052951 1238.67212747 C-1116.43959019 1207.60584231 -1085.38640703 1176.54180287 -1054.33008385 1145.48089981 C-1053.37081336 1144.52148643 -1052.41154293 1143.562073 -1051.45227254 1142.60265952 C-1041.81026082 1132.95921422 -1032.16819717 1123.31582085 -1022.52610244 1113.67245853 C-1002.42634254 1093.57005527 -982.32688816 1073.46734653 -962.22759069 1053.3644809 C-961.23606087 1052.37277507 -960.24453086 1051.38106943 -959.25300067 1050.38936397 C-911.49921047 1002.62713039 -863.74877915 954.86153925 -815.99890996 907.09538572 C-813.41424415 904.50983887 -810.82957736 901.924293 -808.24491057 899.33874714 C-807.21050326 898.30398798 -806.17609594 897.26922883 -805.14168863 896.23446967 C-804.62953581 895.72214264 -804.11738299 895.20981562 -803.58971038 894.68196353 C-801.51955406 892.61110298 -799.4493979 890.54024226 -797.37924175 888.46938154 C-787.52918624 878.61597363 -777.6791294 868.76256703 -767.82906796 858.90916505 C-765.7522969 856.83168967 -763.67552619 854.75421394 -761.59875575 852.67673794 C-713.82097355 804.88272761 -666.04198029 757.08992806 -618.26243327 709.29768202 C-615.67787869 706.71244045 -613.09332523 704.12719775 -610.50877211 701.54195472 C-563.78548022 654.80619302 -517.06163113 608.07098848 -470.33655748 561.33700813 C-468.84960445 559.84977145 -467.36265181 558.36253438 -465.8756993 556.87529718 C-447.24235254 538.2383836 -428.60898218 519.60149362 -409.97546812 500.96474732 C-398.40642587 489.39369693 -386.83741864 477.82261151 -375.26846886 466.25146866 C-374.55701265 465.53987792 -374.55701265 465.53987792 -373.83118359 464.8139116 C-341.83179274 432.80845771 -309.83465226 400.80075506 -277.83873663 368.79182701 C-257.60469254 348.5495547 -237.37041998 328.30751102 -217.13468301 308.06693101 C-216.25679308 307.18883093 -215.37890315 306.31073086 -214.47441049 305.40602169 C-205.76300916 296.69255944 -197.05151964 287.97918537 -188.3399139 279.26592748 C-184.09045828 275.01566261 -179.84102286 270.76537755 -175.59160042 266.5150795 C-174.75856806 265.68187637 -173.92553571 264.84867325 -173.06725995 263.99022154 C-159.85512394 250.77527822 -146.64469102 237.55863372 -133.43496793 224.34127848 C-120.45883183 211.35770972 -107.48094045 198.37589774 -94.50115787 185.39597439 C-86.88340639 177.77802918 -79.26705033 170.15869509 -71.65271309 162.53733724 C-66.6021505 157.48238771 -61.54979153 152.42923852 -56.4959395 147.37757773 C-53.62696397 144.50974267 -50.75878569 141.64112259 -47.89281532 138.77028406 C-45.29239664 136.16547664 -42.6896831 133.56298538 -40.08512294 130.96231922 C-38.71210755 129.5901743 -37.34154487 128.21557643 -35.97108995 126.84087416 C-31.92939718 122.80969954 -27.87091268 118.89448052 -23.45922011 115.26840668 C-8.84147887 102.56213946 -0.30599072 82.40858043 4 64 C4.24363281 63.03707031 4.48726562 62.07414062 4.73828125 61.08203125 C8.22242854 44.65676547 6.4345815 27.39184938 2.54003906 11.24707031 C1.64183491 7.50969642 0.82639001 3.75379041 0 0 Z " fill="#000000" transform="translate(2474,423)"/>
</svg>
